<svg width="36" height="36" viewBox="0 0 36 36" fill="none" xmlns="http://www.w3.org/2000/svg">
<path fill-rule="evenodd" clip-rule="evenodd" d="M6.4575 17.4374L10.89 21.8699C11.0558 22.0244 11.1888 22.2107 11.281 22.4177C11.3732 22.6247 11.4228 22.8481 11.4268 23.0747C11.4308 23.3013 11.3891 23.5264 11.3043 23.7365C11.2194 23.9466 11.0931 24.1375 10.9328 24.2977C10.7726 24.458 10.5817 24.5843 10.3716 24.6692C10.1615 24.754 9.93641 24.7957 9.70982 24.7917C9.48324 24.7877 9.25979 24.7381 9.05279 24.6459C8.84579 24.5537 8.65949 24.4207 8.505 24.2549L1.1925 16.9424L0 15.7499L1.1925 14.5574L8.505 7.2449C8.82489 6.94682 9.248 6.78454 9.68518 6.79226C10.1224 6.79997 10.5395 6.97707 10.8486 7.28625C11.1578 7.59543 11.3349 8.01255 11.3426 8.44972C11.3504 8.8869 11.1881 9.31001 10.89 9.6299L6.4575 14.0624H28.6875C30.6269 14.0624 32.4869 14.8328 33.8582 16.2042C35.2296 17.5755 36 19.4355 36 21.3749C36 23.3143 35.2296 25.1743 33.8582 26.5456C32.4869 27.917 30.6269 28.6874 28.6875 28.6874H24.1875C23.7399 28.6874 23.3107 28.5096 22.9943 28.1931C22.6778 27.8767 22.5 27.4475 22.5 26.9999C22.5 26.5523 22.6778 26.1231 22.9943 25.8067C23.3107 25.4902 23.7399 25.3124 24.1875 25.3124H28.6875C29.7318 25.3124 30.7333 24.8976 31.4717 24.1591C32.2102 23.4207 32.625 22.4192 32.625 21.3749C32.625 20.3306 32.2102 19.3291 31.4717 18.5907C30.7333 17.8522 29.7318 17.4374 28.6875 17.4374H6.4575Z" fill="white"/>
</svg>
