<svg width="15" height="15" viewBox="0 0 15 15" fill="none" xmlns="http://www.w3.org/2000/svg">
<path d="M10.1549 1.08763C10.4205 0.822048 10.7808 0.672852 11.1564 0.672852C11.5321 0.672852 11.8924 0.822048 12.158 1.08763L13.9111 2.84076C14.0428 2.97231 14.1472 3.12851 14.2184 3.30043C14.2896 3.47234 14.3263 3.65661 14.3263 3.84269C14.3263 4.02878 14.2896 4.21305 14.2184 4.38496C14.1472 4.55688 14.0428 4.71308 13.9111 4.84463L5.48694 13.2688L0.967773 14.031L1.73065 9.51184L10.1549 1.08763ZM9.99265 3.25301L11.7458 5.00613L12.9096 3.84234L11.1564 2.08992L9.99265 3.25301ZM10.7435 6.00842L8.99107 4.2553L3.0524 10.194L2.69611 12.3027L4.80482 11.9471L10.7442 6.00772L10.7435 6.00842Z" fill="black"/>
</svg>
