<svg width="40" height="42" viewBox="0 0 40 42" fill="none" xmlns="http://www.w3.org/2000/svg">
<path d="M36.087 17.7525H34.7737V17.6831H20.1V24.3732H29.3143C27.97 28.2677 24.3578 31.0634 20.1 31.0634C14.6977 31.0634 10.3176 26.5701 10.3176 21.0281C10.3176 15.4862 14.6977 10.9929 20.1 10.9929C22.5937 10.9929 24.8624 11.958 26.5898 13.5344L31.2014 8.80359C28.2895 6.01965 24.3945 4.3028 20.1 4.3028C11.0961 4.3028 3.79596 11.7916 3.79596 21.0281C3.79596 30.2647 11.0961 37.7535 20.1 37.7535C29.1039 37.7535 36.4041 30.2647 36.4041 21.0281C36.4041 19.9067 36.2916 18.812 36.087 17.7525Z" fill="#FFC107"/>
<path d="M5.67584 13.2433L11.0325 17.2733C12.482 13.5921 15.9922 10.9929 20.1 10.9929C22.5937 10.9929 24.8625 11.958 26.5899 13.5344L31.2015 8.80359C28.2896 6.01965 24.3945 4.3028 20.1 4.3028C13.8377 4.3028 8.40677 7.92969 5.67584 13.2433Z" fill="#FF3D00"/>
<path d="M20.1 37.7535C24.3113 37.7535 28.1379 36.1002 31.0311 33.4116L25.985 29.0312C24.293 30.3512 22.2256 31.0651 20.1 31.0634C15.8593 31.0634 12.2586 28.2895 10.9021 24.4184L5.58533 28.6206C8.28365 34.0371 13.7634 37.7535 20.1 37.7535Z" fill="#4CAF50"/>
<path d="M36.0869 17.7525H34.7736V17.6831H20.1V24.3732H29.3142C28.6712 26.2267 27.5129 27.8464 25.9825 29.0321L25.9849 29.0304L31.031 33.4108C30.674 33.7436 36.404 29.3908 36.404 21.0281C36.404 19.9067 36.2915 18.812 36.0869 17.7525Z" fill="#1976D2"/>
</svg>
