<svg width="35" height="35" viewBox="0 0 35 35" fill="none" xmlns="http://www.w3.org/2000/svg">
<path d="M17.5 11.6665V17.4998L21.1458 21.1457" stroke-width="1.5" stroke-linecap="round" stroke-linejoin="round"/>
<path d="M6.32625 10.0201L5.2325 10.0245C5.23365 10.3128 5.34859 10.589 5.55233 10.793C5.75606 10.997 6.0321 11.1123 6.32042 11.1138L6.32625 10.0201ZM10.0333 11.1313C10.177 11.132 10.3193 11.1044 10.4523 11.05C10.5852 10.9957 10.7062 10.9157 10.8082 10.8146C10.9103 10.7135 10.9914 10.5933 11.047 10.4609C11.1026 10.3284 11.1315 10.1863 11.1322 10.0427C11.1329 9.89906 11.1052 9.7567 11.0509 9.62375C10.9965 9.49079 10.9165 9.36984 10.8154 9.2678C10.7144 9.16576 10.5942 9.08463 10.4617 9.02905C10.3293 8.97346 10.1872 8.94451 10.0435 8.94384L10.0333 11.1313ZM7.40104 6.30134C7.39949 6.01126 7.28278 5.73367 7.07657 5.52965C6.87035 5.32563 6.59154 5.21188 6.30146 5.21342C6.01138 5.21497 5.73379 5.33169 5.52977 5.5379C5.32574 5.74411 5.21199 6.02293 5.21354 6.31301L7.40104 6.30134ZM5.46875 17.4999C5.46875 17.2098 5.35352 16.9316 5.1484 16.7265C4.94328 16.5214 4.66508 16.4061 4.375 16.4061C4.08492 16.4061 3.80672 16.5214 3.6016 16.7265C3.39648 16.9316 3.28125 17.2098 3.28125 17.4999H5.46875ZM24.6094 29.8155C24.739 29.7465 24.8533 29.6521 24.9457 29.5379C25.038 29.4238 25.1064 29.2922 25.1468 29.1511C25.1872 29.0099 25.1988 28.8621 25.1808 28.7164C25.1629 28.5706 25.1158 28.43 25.0423 28.3029C24.9689 28.1758 24.8706 28.0647 24.7533 27.9764C24.636 27.8881 24.5021 27.8243 24.3597 27.7888C24.2172 27.7533 24.069 27.7469 23.924 27.7698C23.779 27.7928 23.6401 27.8448 23.5156 27.9226L24.6094 29.8155ZM27.9227 23.5155C27.8449 23.64 27.7929 23.7789 27.77 23.9239C27.747 24.0689 27.7534 24.2171 27.7889 24.3595C27.8244 24.502 27.8882 24.6359 27.9765 24.7532C28.0649 24.8704 28.1759 24.9687 28.303 25.0422C28.4301 25.1156 28.5708 25.1628 28.7165 25.1807C28.8622 25.1987 29.01 25.1871 29.1512 25.1467C29.2923 25.1063 29.4239 25.0379 29.5381 24.9456C29.6522 24.8532 29.7466 24.7388 29.8156 24.6093L27.9227 23.5155ZM7.49583 7.39363C7.28968 7.59785 7.1731 7.87559 7.17173 8.16577C7.17037 8.45594 7.28433 8.73477 7.48854 8.94092C7.69276 9.14707 7.9705 9.26366 8.26068 9.26502C8.55085 9.26639 8.82968 9.15243 9.03583 8.94822L7.49583 7.39363ZM27.5071 7.49134C21.9362 1.92051 12.934 1.86509 7.39958 7.39946L8.94542 8.94384C13.6121 4.27863 21.229 4.30634 25.9612 9.03863L27.5071 7.49134ZM7.39958 7.39946L5.55333 9.24572L7.09917 10.7915L8.94688 8.94676L7.39958 7.39946ZM6.32042 11.1138L10.0333 11.1313L10.0435 8.94384L6.33208 8.92634L6.32042 11.1138ZM7.42 10.0143L7.40104 6.30134L5.21354 6.31301L5.2325 10.0245L7.42 10.0143ZM17.5 5.46863C20.6909 5.46863 23.7511 6.73621 26.0074 8.9925C28.2637 11.2488 29.5312 14.309 29.5312 17.4999H31.7187C31.7187 13.7288 30.2207 10.1122 27.5542 7.44571C24.8876 4.77917 21.271 3.28113 17.5 3.28113V5.46863ZM17.5 29.5311C14.3091 29.5311 11.2489 28.2636 8.99262 26.0073C6.73632 23.751 5.46875 20.6908 5.46875 17.4999H3.28125C3.28125 21.2709 4.77929 24.8875 7.44583 27.5541C10.1124 30.2206 13.729 31.7186 17.5 31.7186V29.5311ZM23.5156 27.9226C21.6874 28.98 19.612 29.535 17.5 29.5311V31.7186C20.0885 31.7186 22.5167 31.0259 24.6094 29.8155L23.5156 27.9226ZM29.5312 17.4999C29.5351 19.6119 28.9801 21.6873 27.9227 23.5155L29.8156 24.6093C31.0656 22.4487 31.7222 19.996 31.7187 17.4999H29.5312ZM9.03583 8.94822C11.2859 6.71427 14.3293 5.46407 17.5 5.46863V3.28113C13.7526 3.2763 10.1557 4.75396 7.49583 7.39363L9.03583 8.94822Z" />
</svg>
