<svg width="34" height="34" viewBox="0 0 34 34" fill="none" xmlns="http://www.w3.org/2000/svg">
<path d="M17 17H7.08332M7.08332 17L11.3333 21.25M7.08332 17L11.3333 12.75M7.08332 8.5V7.08333C7.08332 6.33189 7.38183 5.61122 7.91319 5.07986C8.44454 4.54851 9.16521 4.25 9.91666 4.25H24.0833C24.8348 4.25 25.5554 4.54851 26.0868 5.07986C26.6181 5.61122 26.9167 6.33189 26.9167 7.08333V26.9167C26.9167 27.6681 26.6181 28.3888 26.0868 28.9201C25.5554 29.4515 24.8348 29.75 24.0833 29.75H9.91666C9.16521 29.75 8.44454 29.4515 7.91319 28.9201C7.38183 28.3888 7.08332 27.6681 7.08332 26.9167V25.5" stroke="#3c3c3c" stroke-width="1.5" stroke-linecap="round" stroke-linejoin="round"/>
</svg>
