<svg width="35" height="35" viewBox="0 0 35 35" fill="none" xmlns="http://www.w3.org/2000/svg">
<g clip-path="url(#clip0_123_91)">
<path d="M17.5 0C22.1413 0 26.5925 1.84374 29.8744 5.12563C33.1563 8.40752 35 12.8587 35 17.5C35 22.1413 33.1563 26.5925 29.8744 29.8744C26.5925 33.1563 22.1413 35 17.5 35C12.8587 35 8.40752 33.1563 5.12563 29.8744C1.84374 26.5925 0 22.1413 0 17.5C0 12.8587 1.84374 8.40752 5.12563 5.12563C8.40752 1.84374 12.8587 0 17.5 0ZM3.28125 17.5C3.28125 21.271 4.77929 24.8876 7.44583 27.5542C10.1124 30.2207 13.729 31.7188 17.5 31.7188C21.271 31.7188 24.8876 30.2207 27.5542 27.5542C30.2207 24.8876 31.7188 21.271 31.7188 17.5C31.7188 13.729 30.2207 10.1124 27.5542 7.44583C24.8876 4.77929 21.271 3.28125 17.5 3.28125C13.729 3.28125 10.1124 4.77929 7.44583 7.44583C4.77929 10.1124 3.28125 13.729 3.28125 17.5Z" fill="#232323"/>
<path d="M12 14.4C12 13.2684 12 12.7032 12.3223 12.3516C12.6446 12 13.1627 12 14.2 12C15.2373 12 15.7554 12 16.0777 12.3516C16.4 12.7032 16.4 13.2684 16.4 14.4V21.6C16.4 22.7316 16.4 23.2968 16.0777 23.6484C15.7554 24 15.2373 24 14.2 24C13.1627 24 12.6446 24 12.3223 23.6484C12 23.2968 12 22.7316 12 21.6V14.4ZM18.6 14.4C18.6 13.2684 18.6 12.7032 18.9223 12.3516C19.2446 12 19.7627 12 20.8 12C21.8373 12 22.3554 12 22.6777 12.3516C23 12.7032 23 13.2684 23 14.4V21.6C23 22.7316 23 23.2968 22.6777 23.6484C22.3554 24 21.8373 24 20.8 24C19.7627 24 19.2446 24 18.9223 23.6484C18.6 23.2968 18.6 22.7316 18.6 21.6V14.4Z" fill="#232323"/>
</g>
<defs>
<clipPath id="clip0_123_91">
<rect width="35" height="35" fill="white"/>
</clipPath>
</defs>
</svg>
