<svg width="35" height="35" viewBox="0 0 35 35" fill="none" xmlns="http://www.w3.org/2000/svg">
<path d="M5.83337 26.2498C5.83337 24.7027 6.44796 23.219 7.54192 22.125C8.63588 21.0311 10.1196 20.4165 11.6667 20.4165H23.3334C24.8805 20.4165 26.3642 21.0311 27.4582 22.125C28.5521 23.219 29.1667 24.7027 29.1667 26.2498C29.1667 27.0234 28.8594 27.7653 28.3124 28.3122C27.7655 28.8592 27.0236 29.1665 26.25 29.1665H8.75004C7.97649 29.1665 7.23463 28.8592 6.68765 28.3122C6.14066 27.7653 5.83337 27.0234 5.83337 26.2498Z" stroke-width="2" stroke-linejoin="round"/>
<path d="M17.5 14.5833C19.9162 14.5833 21.875 12.6245 21.875 10.2083C21.875 7.79201 19.9162 5.83325 17.5 5.83325C15.0838 5.83325 13.125 7.79201 13.125 10.2083C13.125 12.6245 15.0838 14.5833 17.5 14.5833Z" stroke-width="2"/>
</svg>
