<svg width="35" height="35" viewBox="0 0 35 35" fill="none" xmlns="http://www.w3.org/2000/svg">
<g clip-path="url(#clip0_123_91)">
<path d="M17.5 0C22.1413 0 26.5925 1.84374 29.8744 5.12563C33.1563 8.40752 35 12.8587 35 17.5C35 22.1413 33.1563 26.5925 29.8744 29.8744C26.5925 33.1563 22.1413 35 17.5 35C12.8587 35 8.40752 33.1563 5.12563 29.8744C1.84374 26.5925 0 22.1413 0 17.5C0 12.8587 1.84374 8.40752 5.12563 5.12563C8.40752 1.84374 12.8587 0 17.5 0ZM3.28125 17.5C3.28125 21.271 4.77929 24.8876 7.44583 27.5542C10.1124 30.2207 13.729 31.7188 17.5 31.7188C21.271 31.7188 24.8876 30.2207 27.5542 27.5542C30.2207 24.8876 31.7188 21.271 31.7188 17.5C31.7188 13.729 30.2207 10.1124 27.5542 7.44583C24.8876 4.77929 21.271 3.28125 17.5 3.28125C13.729 3.28125 10.1124 4.77929 7.44583 7.44583C4.77929 10.1124 3.28125 13.729 3.28125 17.5Z" fill="#232323"/>
<path d="M25.927 16.2493C25.9572 16.2036 25.974 16.1504 25.9757 16.0953C25.9773 16.0402 25.9637 15.9855 25.9363 15.937C25.9088 15.8884 25.8687 15.848 25.8201 15.8201C25.7716 15.7922 25.7166 15.7778 25.661 15.7786L24.1942 15.8047L24.0785 15.807C23.7115 14.036 22.68 12.3876 21.0477 11.2866C17.7742 9.07853 13.3551 9.8857 11.1968 13.0854C9.03843 16.2851 9.94548 20.685 13.2188 22.893C14.1907 23.5488 15.3052 23.9613 16.4643 24.0941C17.6235 24.227 18.7918 24.0762 19.8666 23.6549C19.9098 23.6381 19.9491 23.613 19.9822 23.5809C20.0153 23.5489 20.0415 23.5105 20.0594 23.468C20.0773 23.4256 20.0864 23.3799 20.0864 23.3335C20.0863 23.2872 20.077 23.2411 20.0591 23.1979L19.2535 21.1886C19.2144 21.0958 19.1403 21.0213 19.0472 20.9814C18.9541 20.9414 18.8496 20.9393 18.7566 20.9754C17.4601 21.4813 15.9901 21.3139 14.823 20.5267C12.8862 19.2202 12.3492 16.6172 13.626 14.7245C14.9027 12.8317 17.5173 12.3546 19.4541 13.661C20.2715 14.2124 20.8338 14.9959 21.1209 15.8578L20.8736 15.8626L19.4062 15.8881C19.3507 15.8894 19.2968 15.9058 19.2506 15.9355C19.2044 15.9652 19.1676 16.0071 19.1442 16.0566C19.1208 16.1062 19.1117 16.1614 19.1179 16.2163C19.1241 16.2712 19.1453 16.3237 19.1793 16.3681L22.4854 20.6643C22.5449 20.7427 22.6381 20.787 22.7371 20.7856C22.836 20.7832 22.925 20.7344 22.9781 20.6549L25.927 16.2493Z" fill="#232323"/>
</g>
<defs>
<clipPath id="clip0_123_91">
<rect width="35" height="35" fill="white"/>
</clipPath>
</defs>
</svg>
