<svg width="35" height="35" viewBox="0 0 35 35" fill="none" xmlns="http://www.w3.org/2000/svg">
<path d="M17.5 29.1668C14.7926 29.1668 12.1961 28.0913 10.2816 26.1769C8.36718 24.2624 7.29167 21.6659 7.29167 18.9585C7.29167 16.2511 8.36718 13.6545 10.2816 11.7401C12.1961 9.82568 14.7926 8.75016 17.5 8.75016C20.2074 8.75016 22.8039 9.82568 24.7184 11.7401C26.6328 13.6545 27.7083 16.2511 27.7083 18.9585C27.7083 21.6659 26.6328 24.2624 24.7184 26.1769C22.8039 28.0913 20.2074 29.1668 17.5 29.1668ZM27.7521 10.7772L29.8229 8.70641C29.1667 7.96266 28.5104 7.29183 27.7667 6.65016L25.6958 8.75016C23.4354 6.91266 20.5917 5.8335 17.5 5.8335C14.019 5.8335 10.6806 7.2163 8.21922 9.67772C5.75781 12.1391 4.375 15.4775 4.375 18.9585C4.375 22.4395 5.75781 25.7779 8.21922 28.2393C10.6806 30.7007 14.019 32.0835 17.5 32.0835C24.7917 32.0835 30.625 26.2064 30.625 18.9585C30.625 15.8668 29.5458 13.0231 27.7521 10.7772ZM16.0417 20.4168H18.9583V11.6668H16.0417M21.875 1.4585H13.125V4.37516H21.875V1.4585Z" fill="white"/>
</svg>
