<svg width="35" height="35" viewBox="0 0 35 35" fill="none" xmlns="http://www.w3.org/2000/svg">
<path d="M17.5 13.1249C16.3397 13.1249 15.2269 13.5858 14.4064 14.4063C13.586 15.2268 13.125 16.3396 13.125 17.4999C13.125 18.6602 13.586 19.773 14.4064 20.5935C15.2269 21.414 16.3397 21.8749 17.5 21.8749C18.6603 21.8749 19.7731 21.414 20.5936 20.5935C21.4141 19.773 21.875 18.6602 21.875 17.4999C21.875 16.3396 21.4141 15.2268 20.5936 14.4063C19.7731 13.5858 18.6603 13.1249 17.5 13.1249ZM15.3125 17.4999C15.3125 16.9197 15.543 16.3633 15.9532 15.9531C16.3635 15.5429 16.9199 15.3124 17.5 15.3124C18.0802 15.3124 18.6366 15.5429 19.0468 15.9531C19.457 16.3633 19.6875 16.9197 19.6875 17.4999C19.6875 18.0801 19.457 18.6365 19.0468 19.0467C18.6366 19.4569 18.0802 19.6874 17.5 19.6874C16.9199 19.6874 16.3635 19.4569 15.9532 19.0467C15.543 18.6365 15.3125 18.0801 15.3125 17.4999ZM23.2269 9.62053C22.8234 9.69464 22.4071 9.60567 22.0691 9.37314C21.7312 9.14061 21.4993 8.78352 21.4244 8.38022L20.8556 5.28272C20.8277 5.13187 20.7557 4.99271 20.6486 4.88289C20.5415 4.77306 20.4042 4.69752 20.2541 4.66584C18.4375 4.28066 16.5603 4.28066 14.7438 4.66584C14.5937 4.69752 14.4564 4.77306 14.3493 4.88289C14.2422 4.99271 14.1701 5.13187 14.1422 5.28272L13.5756 8.38022C13.5343 8.60083 13.4456 8.80985 13.3157 8.99289C13.1857 9.17593 13.0177 9.32864 12.8231 9.44049C12.6285 9.55235 12.412 9.62069 12.1884 9.64082C11.9649 9.66095 11.7396 9.63239 11.5281 9.55709L8.55533 8.49834C8.41108 8.44668 8.25477 8.43884 8.10607 8.47582C7.95738 8.5128 7.82295 8.59294 7.7197 8.70616C6.47375 10.0776 5.53284 11.6977 4.95908 13.4596C4.91174 13.6053 4.90893 13.7618 4.95101 13.9091C4.9931 14.0564 5.07816 14.1878 5.19533 14.2865L7.60595 16.323C7.77724 16.4676 7.9149 16.6478 8.00934 16.8511C8.10377 17.0543 8.15269 17.2758 8.15269 17.4999C8.15269 17.724 8.10377 17.9455 8.00934 18.1487C7.9149 18.352 7.77724 18.5322 7.60595 18.6768L5.19533 20.7133C5.07816 20.812 4.9931 20.9434 4.95101 21.0907C4.90893 21.238 4.91174 21.3945 4.95908 21.5402C5.53325 23.3024 6.47494 24.9226 7.72189 26.2937C7.82514 26.4069 7.95957 26.487 8.10826 26.524C8.25695 26.561 8.41326 26.5531 8.55751 26.5015L11.5325 25.4427C11.7439 25.3666 11.9694 25.3375 12.1932 25.3573C12.417 25.377 12.6339 25.4453 12.8287 25.5573C13.0235 25.6692 13.1916 25.8222 13.3213 26.0057C13.4511 26.1891 13.5393 26.3986 13.58 26.6196L14.1444 29.7171C14.2013 30.0233 14.4397 30.2683 14.746 30.3318C16.5633 30.7171 18.4412 30.7171 20.2585 30.3318C20.408 30.3001 20.5447 30.2248 20.6514 30.1154C20.7581 30.006 20.83 29.8674 20.8578 29.7171L21.4266 26.6196C21.4679 26.399 21.5566 26.19 21.6866 26.0069C21.8165 25.8239 21.9845 25.6712 22.1791 25.5593C22.3737 25.4475 22.5903 25.3791 22.8138 25.359C23.0374 25.3389 23.2626 25.3674 23.4741 25.4427L26.4469 26.5015C26.7422 26.6065 27.0725 26.5233 27.2825 26.2937C28.5285 24.9222 29.4694 23.3021 30.0431 21.5402C30.0905 21.3945 30.0933 21.238 30.0512 21.0907C30.0091 20.9434 29.9241 20.812 29.8069 20.7133L27.3963 18.6768C27.2246 18.5324 27.0867 18.3523 26.992 18.149C26.8974 17.9457 26.8483 17.7242 26.8483 17.4999C26.8483 17.2757 26.8974 17.0541 26.992 16.8508C27.0867 16.6475 27.2246 16.4674 27.3963 16.323L29.8069 14.2865C29.9241 14.1878 30.0091 14.0564 30.0512 13.9091C30.0933 13.7618 30.0905 13.6053 30.0431 13.4596C29.4684 11.6972 28.5259 10.077 27.2781 8.70616C27.1749 8.59294 27.0405 8.5128 26.8918 8.47582C26.7431 8.43884 26.5868 8.44668 26.4425 8.49834L23.4675 9.55709C23.3885 9.5855 23.3073 9.60744 23.2247 9.62272L23.2269 9.62053ZM8.74564 10.8893L10.7953 11.6177C11.3053 11.7993 11.8487 11.868 12.3878 11.8191C12.927 11.7702 13.4491 11.6048 13.9181 11.3344C14.3871 11.064 14.7919 10.6951 15.1044 10.253C15.4169 9.81094 15.6297 9.30631 15.7281 8.77397L16.1153 6.65209C17.0342 6.53737 17.9637 6.53737 18.8825 6.65209L19.2719 8.77397C19.3696 9.30667 19.582 9.81176 19.8944 10.2542C20.2067 10.6967 20.6115 11.066 21.0807 11.3365C21.5499 11.607 22.0723 11.7722 22.6118 11.8208C23.1512 11.8694 23.6947 11.8001 24.2047 11.6177L26.25 10.8871C26.8078 11.6177 27.2716 12.414 27.6281 13.2583L25.9788 14.6518C25.5643 15.0017 25.2313 15.4378 25.0028 15.9297C24.7743 16.4217 24.6559 16.9575 24.6559 17.4999C24.6559 18.0423 24.7743 18.5782 25.0028 19.0701C25.2313 19.562 25.5643 19.9981 25.9788 20.348L27.6303 21.7415C27.2725 22.5867 26.8094 23.3834 26.2522 24.1127L24.2025 23.3821C23.6925 23.2005 23.1492 23.1318 22.61 23.1807C22.0708 23.2296 21.5487 23.395 21.0797 23.6654C20.6107 23.9358 20.206 24.3047 19.8935 24.7468C19.581 25.1889 19.3681 25.6935 19.2697 26.2258L18.8803 28.3477C17.9615 28.4626 17.032 28.4626 16.1131 28.3477L15.726 26.2258C15.6282 25.6931 15.4158 25.188 15.1035 24.7456C14.7911 24.3031 14.3863 23.9338 13.9171 23.6633C13.4479 23.3928 12.9255 23.2276 12.3861 23.179C11.8467 23.1305 11.3031 23.1997 10.7931 23.3821L8.75002 24.1127C8.19271 23.3834 7.72968 22.5867 7.37189 21.7415L9.02127 20.3458C9.43532 19.9959 9.76807 19.5599 9.99631 19.0682C10.2246 18.5765 10.3428 18.0409 10.3428 17.4988C10.3428 16.9567 10.2246 16.4211 9.99631 15.9294C9.76807 15.4377 9.43532 15.0017 9.02127 14.6518L7.3697 13.2583C7.729 12.4138 8.19192 11.6173 8.74783 10.8871L8.74564 10.8893Z" />
</svg>
