<svg width="15" height="17" viewBox="0 0 15 17" fill="none" xmlns="http://www.w3.org/2000/svg">
<path opacity="0.9" d="M14.1 3H11.4V2.1C11.4 1.54305 11.1788 1.0089 10.7849 0.615076C10.3911 0.221249 9.85695 0 9.3 0H5.7C5.14305 0 4.6089 0.221249 4.21508 0.615076C3.82125 1.0089 3.6 1.54305 3.6 2.1V3H0.9C0.661305 3 0.432387 3.09482 0.263604 3.2636C0.0948212 3.43239 0 3.66131 0 3.9C0 4.1387 0.0948212 4.36761 0.263604 4.5364C0.432387 4.70518 0.661305 4.8 0.9 4.8H1.2V15C1.2 15.3978 1.35804 15.7794 1.63934 16.0607C1.92064 16.342 2.30218 16.5 2.7 16.5H12.3C12.6978 16.5 13.0794 16.342 13.3607 16.0607C13.642 15.7794 13.8 15.3978 13.8 15V4.8H14.1C14.3387 4.8 14.5676 4.70518 14.7364 4.5364C14.9052 4.36761 15 4.1387 15 3.9C15 3.66131 14.9052 3.43239 14.7364 3.2636C14.5676 3.09482 14.3387 3 14.1 3ZM5.4 2.1C5.4 2.02044 5.43161 1.94413 5.48787 1.88787C5.54413 1.83161 5.62043 1.8 5.7 1.8H9.3C9.37957 1.8 9.45587 1.83161 9.51213 1.88787C9.56839 1.94413 9.6 2.02044 9.6 2.1V3H5.4V2.1ZM12 14.7H3V4.8H12V14.7ZM6.6 7.2V12C6.6 12.2387 6.50518 12.4676 6.3364 12.6364C6.16761 12.8052 5.93869 12.9 5.7 12.9C5.46131 12.9 5.23239 12.8052 5.0636 12.6364C4.89482 12.4676 4.8 12.2387 4.8 12V7.2C4.8 6.96131 4.89482 6.73239 5.0636 6.5636C5.23239 6.39482 5.46131 6.3 5.7 6.3C5.93869 6.3 6.16761 6.39482 6.3364 6.5636C6.50518 6.73239 6.6 6.96131 6.6 7.2ZM10.2 7.2V12C10.2 12.2387 10.1052 12.4676 9.9364 12.6364C9.76761 12.8052 9.5387 12.9 9.3 12.9C9.06131 12.9 8.83239 12.8052 8.6636 12.6364C8.49482 12.4676 8.4 12.2387 8.4 12V7.2C8.4 6.96131 8.49482 6.73239 8.6636 6.5636C8.83239 6.39482 9.06131 6.3 9.3 6.3C9.5387 6.3 9.76761 6.39482 9.9364 6.5636C10.1052 6.73239 10.2 6.96131 10.2 7.2Z" fill="black"/>
</svg>
