<svg width="36" height="37" viewBox="0 0 36 37" fill="none" xmlns="http://www.w3.org/2000/svg">
<path fill-rule="evenodd" clip-rule="evenodd" d="M22.5016 11.4436C22.5016 12.6371 22.0275 13.7817 21.1836 14.6256C20.3397 15.4695 19.1951 15.9436 18.0016 15.9436C16.8081 15.9436 15.6635 15.4695 14.8196 14.6256C13.9757 13.7817 13.5016 12.6371 13.5016 11.4436C13.5016 10.2501 13.9757 9.10554 14.8196 8.26162C15.6635 7.41771 16.8081 6.9436 18.0016 6.9436C19.1951 6.9436 20.3397 7.41771 21.1836 8.26162C22.0275 9.10554 22.5016 10.2501 22.5016 11.4436ZM20.5016 11.4436C20.5016 12.1066 20.2382 12.7425 19.7694 13.2114C19.3005 13.6802 18.6646 13.9436 18.0016 13.9436C17.3385 13.9436 16.7027 13.6802 16.2338 13.2114C15.765 12.7425 15.5016 12.1066 15.5016 11.4436C15.5016 10.7806 15.765 10.1447 16.2338 9.67584C16.7027 9.207 17.3385 8.9436 18.0016 8.9436C18.6646 8.9436 19.3005 9.207 19.7694 9.67584C20.2382 10.1447 20.5016 10.7806 20.5016 11.4436Z" />
<path fill-rule="evenodd" clip-rule="evenodd" d="M3.00561 0.00349417C3.2699 -0.0186493 3.53216 0.0651011 3.7347 0.236321C3.93723 0.407542 4.06346 0.652207 4.08561 0.916494L4.37261 4.28549C14.3996 2.50949 21.3746 2.49349 31.6306 4.29249L31.9166 0.916494C31.9277 0.785628 31.9645 0.658228 32.0248 0.541569C32.0851 0.424909 32.1678 0.321276 32.2682 0.236587C32.3686 0.151899 32.4847 0.0878131 32.6098 0.0479902C32.735 0.00816735 32.8667 -0.00661282 32.9976 0.0044941L34.9906 0.174494C35.2547 0.196892 35.4991 0.323226 35.6701 0.525737C35.8411 0.728247 35.9248 0.990366 35.9026 1.25449L35.5736 5.12349C35.7175 5.22381 35.8324 5.3602 35.9069 5.51898C35.9814 5.67776 36.0129 5.85334 35.9981 6.0281C35.9833 6.20286 35.9228 6.37066 35.8227 6.51466C35.7225 6.65865 35.5863 6.77378 35.4276 6.84849L35.0776 10.9705C35.0665 11.1015 35.0297 11.2289 34.9693 11.3457C34.909 11.4624 34.8261 11.5661 34.7257 11.6508C34.6252 11.7355 34.509 11.7995 34.3837 11.8393C34.2584 11.8791 34.1266 11.8937 33.9956 11.8825L32.0036 11.7125C31.7395 11.6901 31.4951 11.5638 31.3241 11.3613C31.1531 11.1587 31.0695 10.8966 31.0916 10.6325L31.4596 6.29249C30.9222 6.19755 30.3842 6.10622 29.8456 6.01849C29.9421 6.31734 29.991 6.62947 29.9906 6.94349L29.9946 7.29349V7.30149C30.0076 8.45249 30.0426 11.4895 29.6856 14.3855C29.4856 16.0055 29.1366 17.8445 28.4556 19.3595C27.9466 20.4895 26.9016 22.1615 25.0016 22.7395V23.8275C25.7466 23.5635 26.4936 23.3125 27.1116 23.1575C27.5026 23.0575 28.2166 22.8935 28.9576 22.9595C29.6363 23.0136 30.2831 23.27 30.8146 23.6955C31.1873 23.999 31.4873 24.382 31.6927 24.8165C31.8981 25.251 32.0036 25.7259 32.0016 26.2065C32.0016 27.1295 31.7046 29.3225 31.4676 30.8835C31.3406 31.7215 31.2076 32.5215 31.1036 33.0645L31.0946 33.1085C31.0216 33.4885 30.9116 34.0555 30.6046 34.5715V34.5725L30.6026 34.5755C30.5326 34.6925 30.2176 35.2255 29.5666 35.6175C29.1675 35.8579 28.7179 36.0022 28.2534 36.0391C27.7889 36.0759 27.3222 36.0043 26.8902 35.8298C26.4581 35.6553 26.0725 35.3828 25.7639 35.0337C25.4552 34.6847 25.2319 34.2687 25.1116 33.8185C24.9316 33.1555 24.8786 32.4635 24.8516 31.8445C24.8424 31.6446 24.8347 31.4446 24.8286 31.2445C24.8166 30.8995 24.8066 30.5845 24.7806 30.2735C23.9352 30.5708 23.0812 30.8429 22.2196 31.0895C20.9196 31.4545 19.4166 31.7855 18.0016 31.7855C16.5866 31.7855 15.0846 31.4555 13.7836 31.0895C12.9359 30.847 12.0956 30.5795 11.2636 30.2875L11.2436 30.5485C11.1864 31.3042 11.1244 32.0596 11.0576 32.8145C11.0276 33.1815 10.9786 33.7545 10.7426 34.2765C10.5429 34.7191 10.2387 35.1066 9.85616 35.4057C9.47365 35.7048 9.02424 35.9066 8.54655 35.9937C8.06886 36.0809 7.57715 36.0507 7.11366 35.906C6.65018 35.7612 6.22876 35.5061 5.88561 35.1625C5.16061 34.4375 5.06361 33.5345 5.00161 32.9645L4.98161 32.7905C4.96161 32.6225 4.92861 32.4025 4.88361 32.1305C4.80661 31.6535 4.70561 31.0905 4.59661 30.4785L4.54861 30.2115C4.42144 29.5143 4.30276 28.8156 4.19261 28.1155C4.10161 27.5185 4.00161 26.7875 4.00161 26.2065C4.00161 25.3675 4.33061 24.3935 5.18861 23.6965C5.77027 23.2288 6.48951 22.9653 7.23561 22.9465C7.76361 22.9265 8.26561 23.0125 8.62861 23.0935C8.72761 23.1155 8.81561 23.1375 8.89161 23.1565C9.50961 23.3125 10.2556 23.5635 11.0016 23.8265V22.7235C10.8765 22.6823 10.7533 22.6352 10.6326 22.5825C9.42561 22.0535 8.64161 21.0425 8.15661 20.1895C7.95749 19.8394 7.78306 19.4759 7.63461 19.1015C7.07461 17.7155 6.73761 16.0755 6.51861 14.5895C6.04161 11.3535 6.00161 7.92849 6.00161 6.94349C6.00161 6.61749 6.05361 6.30349 6.14961 6.01049C5.62261 6.09649 5.08761 6.18849 4.54261 6.28649L4.91161 10.6325C4.93376 10.8966 4.85015 11.1587 4.67914 11.3613C4.50813 11.5638 4.26372 11.6901 3.99961 11.7125L2.00661 11.8825C1.74248 11.9046 1.48036 11.821 1.27785 11.65C1.07534 11.479 0.949007 11.2346 0.92661 10.9705L0.576609 6.84849C0.417395 6.77433 0.280573 6.65947 0.179963 6.5155C0.0793524 6.37153 0.0185179 6.20357 0.00360449 6.02856C-0.0113089 5.85356 0.0202266 5.67772 0.0950261 5.5188C0.169826 5.35989 0.28524 5.22353 0.429609 5.12349L0.100609 1.25349C0.0784569 0.989366 0.162072 0.727247 0.333081 0.524737C0.50409 0.322226 0.748502 0.195892 1.01261 0.173494L3.00561 0.00349417ZM11.5026 5.28549C11.8288 5.77685 12.0024 6.35371 12.0016 6.94349C12.0016 7.84849 12.0426 10.9235 12.4546 13.7145C12.6616 15.1205 12.9336 16.2405 13.2346 16.9435H22.9616L22.9716 16.9205L22.9836 16.8965C23.2906 16.2135 23.5536 15.0905 23.7306 13.6515C24.0326 11.2015 24.0076 8.59849 23.9946 7.39149V7.38549L23.9916 6.94349C23.9916 6.33449 24.1716 5.76849 24.4836 5.29549C19.9836 4.83549 15.9366 4.83349 11.5026 5.28549ZM23.0016 22.7255V21.9235C23.0016 21.6756 23.0937 21.4365 23.26 21.2527C23.4263 21.0688 23.6549 20.9533 23.9016 20.9285C25.2636 20.7905 26.1226 19.6685 26.6316 18.5385C27.1886 17.3005 27.5086 15.6995 27.7016 14.1405C28.0406 11.3865 28.0076 8.46449 27.9946 7.31549V7.31049L27.9906 6.94349C27.9906 6.67828 27.8853 6.42392 27.6977 6.23639C27.5102 6.04885 27.2558 5.94349 26.9906 5.94349C26.7254 5.94349 26.471 6.04885 26.2835 6.23639C26.096 6.42392 25.9906 6.67828 25.9906 6.94349L25.9946 7.37049V7.38149C26.0066 8.58849 26.0346 11.3055 25.7156 13.8965C25.5316 15.3945 25.2396 16.7565 24.8076 17.7165C24.6016 18.1745 24.4006 18.4785 24.1946 18.6715C24.0092 18.8461 23.7642 18.9433 23.5096 18.9435H12.6396C12.4833 18.9435 12.3291 18.9069 12.1895 18.8366C12.0498 18.7662 11.9286 18.6642 11.8356 18.5385C11.668 18.3007 11.5271 18.0452 11.4156 17.7765C11.0016 16.8285 10.6936 15.4865 10.4756 14.0065C10.0416 11.0665 10.0016 7.87549 10.0016 6.94349C10.0016 6.67828 9.89625 6.42392 9.70872 6.23639C9.52118 6.04885 9.26683 5.94349 9.00161 5.94349C8.73639 5.94349 8.48204 6.04885 8.2945 6.23639C8.10697 6.42392 8.00161 6.67828 8.00161 6.94349C8.00161 7.73849 8.02961 10.1505 8.29861 12.7125C8.35361 13.2385 8.41861 13.7725 8.49661 14.2985C8.72261 15.8315 9.06161 17.3845 9.58461 18.5785C10.0406 19.6205 10.8266 20.7865 12.1106 20.9285C12.3555 20.9553 12.5818 21.0716 12.7462 21.2551C12.9107 21.4385 13.0016 21.6762 13.0016 21.9225V22.7255C13.2446 22.7985 13.5536 22.8845 13.9176 22.9705C14.9236 23.2065 16.3446 23.4435 18.0016 23.4435C19.3762 23.4422 20.7461 23.2835 22.0846 22.9705C22.4496 22.8845 22.7586 22.7985 23.0016 22.7255ZM13.0016 24.8025C14.6346 25.2258 16.3146 25.4409 18.0016 25.4425C19.6886 25.4409 21.3686 25.2258 23.0016 24.8025V25.2465C23.0016 25.4067 23.0401 25.5646 23.1138 25.7069C23.1876 25.8491 23.2944 25.9716 23.4254 26.0639C23.5563 26.1562 23.7075 26.2158 23.8663 26.2374C24.0251 26.2591 24.1867 26.2423 24.3376 26.1885L24.8876 25.9915C25.9096 25.6245 26.8786 25.2785 27.6006 25.0955C27.9666 25.0035 28.3996 24.9175 28.7806 24.9515C28.9746 24.9685 29.2806 25.0255 29.5526 25.2475C29.8706 25.5055 30.0016 25.8685 30.0016 26.2075C30.0016 26.9445 29.7356 28.9665 29.4906 30.5835C29.3865 31.2856 29.2695 31.9857 29.1396 32.6835C29.0546 33.1215 28.9976 33.3625 28.8856 33.5505L28.8806 33.5585C28.7795 33.7291 28.6302 33.8661 28.4515 33.952C28.2727 34.038 28.0726 34.0691 27.8762 34.0415C27.6797 34.0139 27.4959 33.9289 27.3477 33.797C27.1996 33.6651 27.0938 33.4924 27.0436 33.3005V33.2985C26.9236 32.8565 26.8756 32.3455 26.8486 31.7535C26.8415 31.5872 26.8351 31.4209 26.8296 31.2545C26.8198 30.8082 26.7955 30.3622 26.7566 29.9175L26.6416 28.8015C26.6258 28.6509 26.5759 28.5059 26.4959 28.3774C26.4158 28.2489 26.3076 28.1402 26.1794 28.0596C26.0513 27.979 25.9065 27.9286 25.756 27.9121C25.6055 27.8956 25.4532 27.9135 25.3106 27.9645C24.1946 28.3645 22.9246 28.8145 21.6786 29.1645C20.4326 29.5145 19.1406 29.7855 18.0016 29.7855C16.8626 29.7855 15.5706 29.5145 14.3246 29.1645C13.1546 28.8345 11.9626 28.4175 10.8976 28.0375L10.7006 27.9675C10.5556 27.9156 10.4006 27.898 10.2477 27.9158C10.0947 27.9337 9.94799 27.9867 9.81888 28.0706C9.68977 28.1545 9.58178 28.2671 9.50333 28.3996C9.42488 28.5321 9.37809 28.6809 9.36661 28.8345C9.32961 29.3245 9.28961 29.8665 9.24861 30.3945C9.18561 31.2075 9.12361 31.9945 9.07561 32.5185L9.07161 32.5635C9.02961 33.0285 9.00861 33.2595 8.92061 33.4525L8.91461 33.4665C8.84618 33.6119 8.74376 33.7386 8.61601 33.8361C8.48825 33.9335 8.33892 33.9988 8.18062 34.0263C8.02232 34.0539 7.85972 34.043 7.70655 33.9944C7.55338 33.9459 7.41414 33.8612 7.30061 33.7475C7.09061 33.5375 7.06561 33.3395 6.97361 32.6015L6.96661 32.5435C6.93515 32.2985 6.89915 32.0541 6.85861 31.8105C6.77861 31.3155 6.67461 30.7375 6.56661 30.1325L6.51661 29.8595C6.39265 29.1789 6.27697 28.4969 6.16961 27.8135C6.07661 27.2065 6.00161 26.6155 6.00161 26.2065C6.00161 25.8685 6.13161 25.5065 6.45061 25.2465C6.64161 25.0915 6.85061 25.0165 7.02361 24.9805C7.09761 24.9645 7.16461 24.9565 7.22161 24.9505C7.60361 24.9175 8.03661 25.0035 8.40161 25.0955C8.58161 25.1415 8.77561 25.1955 8.98161 25.2595C9.56161 25.4375 10.2406 25.6775 10.9496 25.9315L11.6656 26.1885C11.8165 26.2423 11.9782 26.2591 12.1369 26.2374C12.2957 26.2158 12.4469 26.1562 12.5779 26.0639C12.7088 25.9716 12.8157 25.8491 12.8894 25.7069C12.9632 25.5646 13.0016 25.4067 13.0016 25.2465V24.8025Z" />
</svg>
