<svg width="104" height="77" viewBox="0 0 104 77" fill="none" xmlns="http://www.w3.org/2000/svg">
<path d="M32.5227 62.5688C32.7918 62.7586 32.9819 63.0507 33.0517 63.3815C33.1214 63.7124 33.0653 64.0553 32.8954 64.3357L30.9811 67.4723C30.8098 67.7509 30.5387 67.9434 30.2273 68.0074C29.9159 68.0714 29.5897 68.0018 29.3204 67.8138L10.4227 54.5686C10.1537 54.3786 9.96376 54.0864 9.89419 53.7555C9.82463 53.4246 9.88102 53.0818 10.0511 52.8014L11.9698 49.6677C12.0545 49.5296 12.1647 49.4112 12.294 49.3193C12.4234 49.2274 12.5693 49.1638 12.7235 49.1321C12.8778 49.1004 13.0372 49.1012 13.1929 49.1345C13.3485 49.1678 13.4972 49.233 13.6306 49.3263L32.5227 62.5688ZM43.5342 26.1941C43.8032 26.3841 43.9931 26.6763 44.0627 27.0072C44.1323 27.3381 44.0759 27.681 43.9058 27.9613L31.8538 47.6864C31.6825 47.965 31.4114 48.1575 31.1 48.2215C30.7886 48.2855 30.4624 48.2159 30.1931 48.0278L25.3168 44.6056C25.0478 44.4156 24.8579 44.1234 24.7883 43.7925C24.7188 43.4616 24.7752 43.1187 24.9453 42.8384L36.9937 23.1142C37.0784 22.9762 37.1884 22.8578 37.3177 22.766C37.4469 22.6741 37.5927 22.6105 37.7469 22.5788C37.901 22.5471 38.0604 22.548 38.2159 22.5813C38.3715 22.6146 38.5201 22.6798 38.6533 22.773L43.5342 26.1941ZM36.6225 55.855C37.1813 56.2465 37.3483 57.0415 36.994 57.6222L35.0759 60.7583C34.9912 60.8964 34.8811 61.0148 34.7517 61.1067C34.6224 61.1986 34.4765 61.2623 34.3223 61.294C34.168 61.3257 34.0085 61.3249 33.8529 61.2915C33.6973 61.2582 33.5485 61.1931 33.4152 61.0998L14.5257 47.8527C14.2566 47.6629 14.0665 47.3708 13.9967 47.04C13.9269 46.7091 13.9831 46.3662 14.153 46.0858L16.0667 42.952C16.238 42.6733 16.5091 42.4809 16.8205 42.4168C17.1319 42.3528 17.4581 42.4225 17.7274 42.6105L36.6225 55.855ZM54.8461 24.0541C55.115 24.2443 55.3047 24.5366 55.3741 24.8676C55.4434 25.1985 55.3868 25.5414 55.2165 25.8216L53.2996 28.9575C53.1283 29.2363 52.8571 29.4291 52.5456 29.4934C52.2341 29.5577 51.9077 29.4883 51.638 29.3005L32.747 16.0576C32.4777 15.868 32.2874 15.5759 32.2176 15.245C32.1478 14.9141 32.2041 14.571 32.3743 14.2907L34.2967 11.1469C34.3814 11.0089 34.4914 10.8905 34.6207 10.7986C34.7499 10.7068 34.8957 10.6432 35.0499 10.6115C35.204 10.5798 35.3634 10.5807 35.5189 10.614C35.6745 10.6473 35.8231 10.7125 35.9563 10.8057L54.8461 24.0541ZM58.9399 17.3509C59.2088 17.5413 59.3986 17.8337 59.4682 18.1647C59.5378 18.4957 59.4816 18.8387 59.3118 19.1193L57.3992 22.2528C57.3147 22.3909 57.2047 22.5093 57.0755 22.6013C56.9463 22.6933 56.8005 22.757 56.6464 22.7888C56.4923 22.8206 56.333 22.8199 56.1774 22.7866C56.0219 22.7534 55.8732 22.6884 55.7399 22.5952L36.8495 9.34439C36.5805 9.15419 36.3905 8.86197 36.3207 8.53101C36.2509 8.20006 36.3069 7.85704 36.4765 7.57625L38.3902 4.43723C38.4745 4.29906 38.5843 4.18056 38.7134 4.08855C38.8425 3.99653 38.9882 3.9328 39.1422 3.90101C39.2963 3.86922 39.4556 3.87 39.6111 3.90331C39.7666 3.93661 39.9151 4.00179 40.0482 4.09509L58.9399 17.3509Z" fill="black"/>
<path d="M66.7886 67.3374C67.0577 67.5272 67.2477 67.8192 67.3175 68.1501C67.3873 68.4809 67.3312 68.8238 67.1613 69.1043L65.247 72.2408C65.0757 72.5195 64.8045 72.7119 64.4932 72.776C64.1818 72.84 63.8556 72.7703 63.5862 72.5823L44.6885 59.3372C44.4195 59.1472 44.2296 58.855 44.1601 58.5241C44.0905 58.1932 44.1469 57.8503 44.317 57.57L46.2357 54.4363C46.3204 54.2982 46.4306 54.1798 46.5599 54.0879C46.6892 53.996 46.8352 53.9324 46.9894 53.9006C47.1436 53.8689 47.3031 53.8698 47.4587 53.9031C47.6144 53.9364 47.7631 54.0015 47.8964 54.0948L66.7886 67.3374ZM77.8001 30.9627C78.0691 31.1527 78.259 31.4449 78.3286 31.7758C78.3981 32.1067 78.3417 32.4496 78.1716 32.7299L66.1197 52.4549C65.9484 52.7336 65.6773 52.926 65.3659 52.99C65.0545 53.0541 64.7283 52.9844 64.459 52.7964L59.5827 49.3741C59.3137 49.1841 59.1238 48.892 59.0542 48.5611C58.9846 48.2302 59.041 47.8873 59.2111 47.6069L71.2596 27.8828C71.3442 27.7447 71.4543 27.6264 71.5835 27.5345C71.7128 27.4427 71.8586 27.3791 72.0127 27.3474C72.1669 27.3157 72.3263 27.3165 72.4818 27.3499C72.6373 27.3832 72.7859 27.4483 72.9192 27.5416L77.8001 30.9627ZM70.8884 60.6235C71.4471 61.0151 71.6142 61.8101 71.2599 62.3907L69.3418 65.5269C69.2571 65.665 69.1469 65.7834 69.0176 65.8753C68.8883 65.9672 68.7424 66.0308 68.5881 66.0625C68.4339 66.0942 68.2744 66.0934 68.1188 66.0601C67.9631 66.0268 67.8144 65.9616 67.6811 65.8684L48.7915 52.6212C48.5225 52.4314 48.3324 52.1394 48.2626 51.8085C48.1928 51.4777 48.2489 51.1348 48.4188 50.8543L50.3326 47.7205C50.5039 47.4419 50.775 47.2494 51.0864 47.1854C51.3978 47.1214 51.724 47.191 51.9933 47.379L70.8884 60.6235ZM89.112 28.8227C89.3809 29.0128 89.5706 29.3052 89.64 29.6361C89.7093 29.9671 89.6527 30.3099 89.4824 30.5901L87.5654 33.726C87.3942 34.0049 87.123 34.1976 86.8115 34.2619C86.5 34.3262 86.1735 34.2569 85.9039 34.069L67.0129 20.8261C66.7435 20.6366 66.5532 20.3445 66.4834 20.0136C66.4136 19.6826 66.47 19.3396 66.6402 19.0592L68.5626 15.9154C68.6472 15.7774 68.7573 15.6591 68.8865 15.5672C69.0158 15.4753 69.1616 15.4117 69.3157 15.3801C69.4699 15.3484 69.6293 15.3492 69.7848 15.3825C69.9403 15.4159 70.0889 15.481 70.2222 15.5743L89.112 28.8227ZM93.2058 22.1195C93.4747 22.3099 93.6644 22.6022 93.734 22.9332C93.8036 23.2642 93.7474 23.6072 93.5776 23.8879L91.6651 27.0214C91.5805 27.1595 91.4705 27.2779 91.3414 27.3699C91.2122 27.4618 91.0664 27.5255 90.9123 27.5573C90.7582 27.5891 90.5988 27.5884 90.4433 27.5552C90.2877 27.522 90.1391 27.457 90.0058 27.3638L71.1153 14.1129C70.8464 13.9227 70.6564 13.6305 70.5866 13.2996C70.5168 12.9686 70.5727 12.6256 70.7423 12.3448L72.656 9.20578C72.7404 9.06761 72.8502 8.94912 72.9793 8.8571C73.1083 8.76508 73.2541 8.70135 73.4081 8.66956C73.5622 8.63778 73.7215 8.63856 73.877 8.67186C74.0324 8.70517 74.181 8.77034 74.3141 8.86364L93.2058 22.1195Z" fill="black"/>
</svg>
