<svg width="335" height="77" viewBox="0 0 335 77" fill="none" xmlns="http://www.w3.org/2000/svg">
<path d="M32.5227 62.5688C32.7918 62.7586 32.9819 63.0507 33.0517 63.3815C33.1214 63.7124 33.0653 64.0553 32.8954 64.3357L30.9811 67.4723C30.8098 67.7509 30.5387 67.9434 30.2273 68.0074C29.9159 68.0714 29.5897 68.0018 29.3204 67.8138L10.4227 54.5686C10.1537 54.3786 9.96376 54.0864 9.89419 53.7555C9.82463 53.4246 9.88102 53.0818 10.0511 52.8014L11.9698 49.6677C12.0545 49.5296 12.1647 49.4112 12.294 49.3193C12.4234 49.2274 12.5693 49.1638 12.7235 49.1321C12.8778 49.1004 13.0372 49.1012 13.1929 49.1345C13.3485 49.1678 13.4972 49.233 13.6306 49.3263L32.5227 62.5688ZM43.5342 26.1941C43.8032 26.3841 43.9931 26.6763 44.0627 27.0072C44.1323 27.3381 44.0759 27.681 43.9058 27.9613L31.8538 47.6864C31.6825 47.965 31.4114 48.1575 31.1 48.2215C30.7886 48.2855 30.4624 48.2159 30.1931 48.0278L25.3168 44.6056C25.0478 44.4156 24.8579 44.1234 24.7883 43.7925C24.7188 43.4616 24.7752 43.1187 24.9453 42.8384L36.9937 23.1142C37.0784 22.9762 37.1884 22.8578 37.3177 22.766C37.4469 22.6741 37.5927 22.6105 37.7469 22.5788C37.901 22.5471 38.0604 22.548 38.2159 22.5813C38.3715 22.6146 38.5201 22.6798 38.6533 22.773L43.5342 26.1941ZM36.6225 55.855C37.1813 56.2465 37.3483 57.0415 36.994 57.6222L35.0759 60.7583C34.9912 60.8964 34.8811 61.0148 34.7517 61.1067C34.6224 61.1986 34.4765 61.2623 34.3223 61.294C34.168 61.3257 34.0085 61.3249 33.8529 61.2915C33.6973 61.2582 33.5485 61.1931 33.4152 61.0998L14.5257 47.8527C14.2566 47.6629 14.0665 47.3708 13.9967 47.04C13.9269 46.7091 13.9831 46.3662 14.153 46.0858L16.0667 42.952C16.238 42.6733 16.5091 42.4809 16.8205 42.4168C17.1319 42.3528 17.4581 42.4225 17.7274 42.6105L36.6225 55.855ZM54.8461 24.0541C55.115 24.2443 55.3047 24.5366 55.3741 24.8676C55.4434 25.1985 55.3868 25.5414 55.2165 25.8216L53.2996 28.9575C53.1283 29.2363 52.8571 29.4291 52.5456 29.4934C52.2341 29.5577 51.9077 29.4883 51.638 29.3005L32.747 16.0576C32.4777 15.868 32.2874 15.5759 32.2176 15.245C32.1478 14.9141 32.2041 14.571 32.3743 14.2907L34.2967 11.1469C34.3814 11.0089 34.4914 10.8905 34.6207 10.7986C34.7499 10.7068 34.8957 10.6432 35.0499 10.6115C35.204 10.5798 35.3634 10.5806 35.5189 10.614C35.6745 10.6473 35.8231 10.7125 35.9563 10.8057L54.8461 24.0541ZM58.9399 17.3509C59.2088 17.5413 59.3986 17.8337 59.4682 18.1647C59.5378 18.4957 59.4816 18.8387 59.3118 19.1193L57.3992 22.2528C57.3147 22.3909 57.2047 22.5093 57.0755 22.6013C56.9463 22.6933 56.8005 22.757 56.6464 22.7888C56.4923 22.8206 56.333 22.8199 56.1774 22.7866C56.0219 22.7534 55.8732 22.6884 55.7399 22.5952L36.8495 9.34439C36.5805 9.15419 36.3905 8.86197 36.3207 8.53101C36.2509 8.20006 36.3069 7.85704 36.4765 7.57625L38.3902 4.43723C38.4745 4.29906 38.5843 4.18056 38.7134 4.08855C38.8425 3.99653 38.9882 3.9328 39.1422 3.90101C39.2963 3.86922 39.4556 3.87 39.6111 3.90331C39.7666 3.93661 39.9151 4.00179 40.0483 4.09509L58.9399 17.3509Z" fill="black"/>
<path d="M66.7886 67.3374C67.0577 67.5272 67.2477 67.8192 67.3175 68.1501C67.3873 68.4809 67.3312 68.8238 67.1613 69.1043L65.247 72.2408C65.0757 72.5195 64.8045 72.7119 64.4932 72.776C64.1818 72.84 63.8556 72.7703 63.5862 72.5823L44.6885 59.3372C44.4195 59.1472 44.2296 58.855 44.1601 58.5241C44.0905 58.1932 44.1469 57.8503 44.317 57.57L46.2357 54.4363C46.3204 54.2982 46.4306 54.1798 46.5599 54.0879C46.6892 53.996 46.8352 53.9323 46.9894 53.9006C47.1436 53.8689 47.3031 53.8698 47.4587 53.9031C47.6144 53.9364 47.7631 54.0015 47.8964 54.0948L66.7886 67.3374ZM77.8001 30.9627C78.0691 31.1527 78.259 31.4449 78.3286 31.7758C78.3981 32.1067 78.3417 32.4496 78.1716 32.7299L66.1197 52.4549C65.9484 52.7336 65.6773 52.926 65.3659 52.99C65.0545 53.0541 64.7283 52.9844 64.459 52.7964L59.5827 49.3741C59.3137 49.1841 59.1238 48.892 59.0542 48.5611C58.9846 48.2302 59.041 47.8873 59.2111 47.6069L71.2596 27.8828C71.3442 27.7447 71.4543 27.6264 71.5835 27.5345C71.7128 27.4427 71.8586 27.3791 72.0127 27.3474C72.1669 27.3157 72.3263 27.3165 72.4818 27.3499C72.6373 27.3832 72.7859 27.4483 72.9192 27.5416L77.8001 30.9627ZM70.8884 60.6235C71.4471 61.0151 71.6142 61.8101 71.2599 62.3907L69.3418 65.5269C69.2571 65.665 69.1469 65.7834 69.0176 65.8753C68.8883 65.9672 68.7424 66.0308 68.5881 66.0625C68.4339 66.0942 68.2744 66.0934 68.1188 66.0601C67.9631 66.0268 67.8144 65.9616 67.6811 65.8684L48.7915 52.6212C48.5225 52.4314 48.3324 52.1394 48.2626 51.8085C48.1928 51.4777 48.2489 51.1348 48.4188 50.8543L50.3326 47.7205C50.5039 47.4419 50.775 47.2494 51.0864 47.1854C51.3978 47.1214 51.724 47.191 51.9933 47.379L70.8884 60.6235ZM89.112 28.8227C89.3809 29.0128 89.5706 29.3052 89.64 29.6361C89.7093 29.9671 89.6527 30.3099 89.4824 30.5901L87.5654 33.726C87.3942 34.0049 87.123 34.1976 86.8115 34.2619C86.5 34.3262 86.1735 34.2569 85.9038 34.069L67.0129 20.8261C66.7435 20.6366 66.5532 20.3445 66.4834 20.0136C66.4136 19.6826 66.47 19.3396 66.6402 19.0592L68.5626 15.9154C68.6472 15.7774 68.7573 15.6591 68.8865 15.5672C69.0158 15.4753 69.1616 15.4117 69.3157 15.3801C69.4699 15.3484 69.6293 15.3492 69.7848 15.3825C69.9403 15.4159 70.0889 15.481 70.2222 15.5743L89.112 28.8227ZM93.2058 22.1195C93.4747 22.3098 93.6644 22.6022 93.734 22.9332C93.8036 23.2642 93.7474 23.6072 93.5776 23.8879L91.6651 27.0214C91.5805 27.1595 91.4705 27.2779 91.3414 27.3699C91.2122 27.4618 91.0664 27.5255 90.9123 27.5573C90.7582 27.5891 90.5988 27.5884 90.4433 27.5552C90.2877 27.522 90.1391 27.457 90.0058 27.3638L71.1153 14.1129C70.8464 13.9227 70.6564 13.6305 70.5866 13.2996C70.5168 12.9686 70.5727 12.6256 70.7423 12.3448L72.656 9.20578C72.7404 9.06761 72.8502 8.94912 72.9793 8.8571C73.1083 8.76508 73.2541 8.70135 73.4081 8.66957C73.5622 8.63778 73.7215 8.63856 73.877 8.67186C74.0324 8.70517 74.181 8.77034 74.3141 8.86364L93.2058 22.1195Z" fill="black"/>
<path d="M120.84 59.4C118.653 59.4 116.64 59.0533 114.8 58.36C112.987 57.64 111.4 56.64 110.04 55.36C108.68 54.0533 107.627 52.52 106.88 50.76C106.133 49 105.76 47.08 105.76 45C105.76 42.92 106.133 41 106.88 39.24C107.627 37.48 108.68 35.96 110.04 34.68C111.427 33.3733 113.04 32.3733 114.88 31.68C116.72 30.96 118.733 30.6 120.92 30.6C123.293 30.6 125.427 30.9867 127.32 31.76C129.24 32.5333 130.853 33.6667 132.16 35.16L128.88 38.36C127.787 37.2667 126.6 36.4667 125.32 35.96C124.067 35.4267 122.68 35.16 121.16 35.16C119.693 35.16 118.333 35.4 117.08 35.88C115.827 36.36 114.747 37.04 113.84 37.92C112.933 38.8 112.227 39.84 111.72 41.04C111.24 42.24 111 43.56 111 45C111 46.4133 111.24 47.72 111.72 48.92C112.227 50.12 112.933 51.1733 113.84 52.08C114.747 52.96 115.813 53.64 117.04 54.12C118.267 54.6 119.627 54.84 121.12 54.84C122.507 54.84 123.84 54.6267 125.12 54.2C126.427 53.7467 127.667 53 128.84 51.96L131.8 55.84C130.333 57.0133 128.627 57.9067 126.68 58.52C124.76 59.1067 122.813 59.4 120.84 59.4ZM126.88 55.16V44.68H131.8V55.84L126.88 55.16ZM139.938 67.04C138.898 67.04 137.858 66.8667 136.818 66.52C135.778 66.1733 134.912 65.6933 134.218 65.08L136.218 61.4C136.725 61.8533 137.298 62.2133 137.938 62.48C138.578 62.7467 139.232 62.88 139.898 62.88C140.805 62.88 141.538 62.6533 142.098 62.2C142.658 61.7467 143.178 60.9867 143.658 59.92L144.898 57.12L145.298 56.52L153.378 37.64H158.178L148.178 60.72C147.512 62.32 146.765 63.5867 145.938 64.52C145.138 65.4533 144.232 66.1067 143.218 66.48C142.232 66.8533 141.138 67.04 139.938 67.04ZM144.338 59.76L134.698 37.64H139.898L147.738 56.08L144.338 59.76ZM188.263 37.4C189.97 37.4 191.477 37.7333 192.783 38.4C194.117 39.0667 195.157 40.0933 195.903 41.48C196.65 42.84 197.023 44.6 197.023 46.76V59H192.023V47.4C192.023 45.5067 191.61 44.0933 190.783 43.16C189.957 42.2267 188.77 41.76 187.223 41.76C186.13 41.76 185.157 42 184.303 42.48C183.477 42.96 182.823 43.6667 182.343 44.6C181.89 45.5333 181.663 46.72 181.663 48.16V59H176.663V47.4C176.663 45.5067 176.25 44.0933 175.423 43.16C174.597 42.2267 173.41 41.76 171.863 41.76C170.77 41.76 169.797 42 168.943 42.48C168.117 42.96 167.463 43.6667 166.983 44.6C166.53 45.5333 166.303 46.72 166.303 48.16V59H161.303V37.64H166.063V43.32L165.223 41.64C165.943 40.2533 166.983 39.2 168.343 38.48C169.73 37.76 171.303 37.4 173.063 37.4C175.063 37.4 176.797 37.8933 178.263 38.88C179.757 39.8667 180.743 41.36 181.223 43.36L179.263 42.68C179.957 41.08 181.103 39.8 182.703 38.84C184.303 37.88 186.157 37.4 188.263 37.4ZM216.973 59.4C214.786 59.4 212.773 59.0533 210.933 58.36C209.119 57.64 207.533 56.64 206.173 55.36C204.813 54.0533 203.759 52.52 203.013 50.76C202.266 49 201.893 47.08 201.893 45C201.893 42.92 202.266 41 203.013 39.24C203.759 37.48 204.813 35.96 206.173 34.68C207.559 33.3733 209.173 32.3733 211.013 31.68C212.853 30.96 214.866 30.6 217.053 30.6C219.426 30.6 221.559 30.9867 223.453 31.76C225.373 32.5333 226.986 33.6667 228.293 35.16L225.013 38.36C223.919 37.2667 222.733 36.4667 221.453 35.96C220.199 35.4267 218.813 35.16 217.293 35.16C215.826 35.16 214.466 35.4 213.213 35.88C211.959 36.36 210.879 37.04 209.973 37.92C209.066 38.8 208.359 39.84 207.853 41.04C207.373 42.24 207.133 43.56 207.133 45C207.133 46.4133 207.373 47.72 207.853 48.92C208.359 50.12 209.066 51.1733 209.973 52.08C210.879 52.96 211.946 53.64 213.173 54.12C214.399 54.6 215.759 54.84 217.253 54.84C218.639 54.84 219.973 54.6267 221.253 54.2C222.559 53.7467 223.799 53 224.973 51.96L227.933 55.84C226.466 57.0133 224.759 57.9067 222.813 58.52C220.893 59.1067 218.946 59.4 216.973 59.4ZM223.013 55.16V44.68H227.933V55.84L223.013 55.16ZM234.311 59V37.64H239.071V43.52L238.511 41.8C239.151 40.36 240.151 39.2667 241.511 38.52C242.898 37.7733 244.618 37.4 246.671 37.4V42.16C246.458 42.1067 246.258 42.08 246.071 42.08C245.885 42.0533 245.698 42.04 245.511 42.04C243.618 42.04 242.111 42.6 240.991 43.72C239.871 44.8133 239.311 46.4533 239.311 48.64V59H234.311ZM262.549 59V54.68L262.269 53.76V46.2C262.269 44.7333 261.829 43.6 260.949 42.8C260.069 41.9733 258.736 41.56 256.949 41.56C255.749 41.56 254.563 41.7467 253.389 42.12C252.243 42.4933 251.269 43.0133 250.469 43.68L248.509 40.04C249.656 39.16 251.016 38.5067 252.589 38.08C254.189 37.6267 255.843 37.4 257.549 37.4C260.643 37.4 263.029 38.1467 264.709 39.64C266.416 41.1067 267.269 43.3867 267.269 46.48V59H262.549ZM255.829 59.28C254.229 59.28 252.829 59.0133 251.629 58.48C250.429 57.92 249.496 57.16 248.829 56.2C248.189 55.2133 247.869 54.1067 247.869 52.88C247.869 51.68 248.149 50.6 248.709 49.64C249.296 48.68 250.243 47.92 251.549 47.36C252.856 46.8 254.589 46.52 256.749 46.52H262.949V49.84H257.109C255.403 49.84 254.256 50.12 253.669 50.68C253.083 51.2133 252.789 51.88 252.789 52.68C252.789 53.5867 253.149 54.3067 253.869 54.84C254.589 55.3733 255.589 55.64 256.869 55.64C258.096 55.64 259.189 55.36 260.149 54.8C261.136 54.24 261.843 53.4133 262.269 52.32L263.109 55.32C262.629 56.5733 261.763 57.5467 260.509 58.24C259.283 58.9333 257.723 59.28 255.829 59.28ZM285.526 59.28C283.793 59.28 282.206 58.88 280.766 58.08C279.353 57.28 278.22 56.08 277.366 54.48C276.54 52.8533 276.126 50.8 276.126 48.32C276.126 45.8133 276.526 43.76 277.326 42.16C278.153 40.56 279.273 39.3733 280.686 38.6C282.1 37.8 283.713 37.4 285.526 37.4C287.633 37.4 289.486 37.8533 291.086 38.76C292.713 39.6667 293.993 40.9333 294.926 42.56C295.886 44.1867 296.366 46.1067 296.366 48.32C296.366 50.5333 295.886 52.4667 294.926 54.12C293.993 55.7467 292.713 57.0133 291.086 57.92C289.486 58.8267 287.633 59.28 285.526 59.28ZM273.686 66.76V37.64H278.446V42.68L278.286 48.36L278.686 54.04V66.76H273.686ZM284.966 55C286.166 55 287.233 54.7333 288.166 54.2C289.126 53.6667 289.886 52.8933 290.446 51.88C291.006 50.8667 291.286 49.68 291.286 48.32C291.286 46.9333 291.006 45.7467 290.446 44.76C289.886 43.7467 289.126 42.9733 288.166 42.44C287.233 41.9067 286.166 41.64 284.966 41.64C283.766 41.64 282.686 41.9067 281.726 42.44C280.766 42.9733 280.006 43.7467 279.446 44.76C278.886 45.7467 278.606 46.9333 278.606 48.32C278.606 49.68 278.886 50.8667 279.446 51.88C280.006 52.8933 280.766 53.6667 281.726 54.2C282.686 54.7333 283.766 55 284.966 55ZM313.228 37.4C314.935 37.4 316.455 37.7333 317.788 38.4C319.148 39.0667 320.215 40.0933 320.988 41.48C321.761 42.84 322.148 44.6 322.148 46.76V59H317.148V47.4C317.148 45.5067 316.695 44.0933 315.788 43.16C314.908 42.2267 313.668 41.76 312.068 41.76C310.895 41.76 309.855 42 308.948 42.48C308.041 42.96 307.335 43.68 306.828 44.64C306.348 45.5733 306.108 46.76 306.108 48.2V59H301.108V29.32H306.108V43.4L305.028 41.64C305.775 40.28 306.855 39.24 308.268 38.52C309.708 37.7733 311.361 37.4 313.228 37.4Z" fill="black"/>
</svg>
